<?xml version="1.0" encoding="UTF-8"?>
<!DOCTYPE svg PUBLIC "-//W3C//DTD SVG 1.1//EN" "http://www.w3.org/Graphics/SVG/1.1/DTD/svg11.dtd">
<!-- Creator: CorelDRAW X6 -->
<svg xmlns="http://www.w3.org/2000/svg" xml:space="preserve" width="77.8832mm" height="127mm" version="1.1" style="shape-rendering:geometricPrecision; text-rendering:geometricPrecision; image-rendering:optimizeQuality; fill-rule:evenodd; clip-rule:evenodd"
viewBox="0 0 7861 12819"
 xmlns:xlink="http://www.w3.org/1999/xlink">
 <defs>
  <style type="text/css">
   <![CDATA[
    .fil0 {fill:black}
   ]]>
  </style>
 </defs>
 <g id="Warstwa_x0020_1" transform="scale(-1, 1) translate(-7861, 0)">
  <metadata id="CorelCorpID_0Corel-Layer"/>
  <path class="fil0" d="M4891 7577c10,52 18,112 67,176 106,22 37,-17 119,-7 80,107 17,175 43,251 20,60 69,68 148,159 78,90 73,54 114,195l262 529c18,31 41,58 59,89 47,79 35,143 79,230 44,88 100,76 211,99 -10,44 -32,156 -4,215 53,114 219,43 258,201 28,114 21,64 74,152 67,112 113,187 172,299 138,263 9,243 200,498l76 98 53 200c53,212 -29,164 177,279 38,21 24,21 47,49l12 15c25,25 26,8 59,47 99,117 117,191 107,347 -59,50 -59,94 -8,159 16,20 119,82 149,105 74,56 127,127 210,166 94,44 231,242 265,355 20,68 42,150 -3,214 -18,26 -108,102 -130,108 -105,32 -371,1 -435,-51 -24,-20 -38,-55 -57,-77 -20,-23 -39,-40 -60,-61 -95,-90 -68,-194 -228,-268 -202,-93 -130,-7 -275,-222 -34,-50 -33,-120 -69,-174 -76,-26 -175,-6 -207,-88 -18,-46 -20,-228 -52,-252l-17 -13c-98,-60 -110,-13 -209,-127 -64,-73 -95,-164 -127,-249 -84,-226 -84,-197 -205,-358 -28,-38 -35,-63 -63,-112 -247,-442 -72,-335 -380,-734 -49,-63 -140,-120 -213,-149 -53,-21 -92,-9 -152,-37 -38,-17 -82,-49 -113,-75 -60,-51 -107,-145 -162,-200 -169,-169 -75,-200 -333,-405 -70,-56 -127,-98 -202,-174 -33,-34 -50,-54 -93,-95 -45,-43 -60,-38 -113,-61 -47,-21 -82,-42 -119,-69 -392,-287 -315,-275 -582,-107 -140,88 -254,335 -454,471 -109,74 -179,184 -284,267 -73,58 -114,130 -168,193 -90,104 -92,84 -144,233 -44,127 -113,121 -200,165 -23,12 -138,178 -157,216 -40,78 -78,176 -109,253 -43,108 -62,162 -96,279 -33,111 -63,163 -105,261 -31,71 -86,192 -126,248 -100,140 -51,20 -89,272 -84,564 -221,278 -350,388 -29,25 -28,72 -35,111 -19,102 -24,245 -91,327 -45,55 -42,2 -57,89 -11,65 -21,60 -29,108 -13,78 38,176 1,240 -60,22 -508,24 -593,14 -79,-9 -146,-88 -134,-172 5,-36 33,-71 46,-104l73 -242c10,-65 -114,-386 187,-573 272,-169 -94,-245 172,-565 76,-92 113,-302 153,-437 45,-152 89,-316 165,-439 52,-83 105,-114 133,-161l54 -94c71,-92 62,-57 42,-140 -69,-286 165,-198 246,-270 17,-15 84,-174 87,-210 10,-133 -13,-133 101,-191 18,-233 83,-359 96,-481 17,-173 102,-146 143,-301 13,-49 -4,-70 -7,-114 28,-18 41,-11 71,-38 23,-20 24,-31 57,-83 53,-153 10,-175 19,-272 34,-22 51,-33 93,-51l30 -119c-24,-66 -16,2 -31,-47 -18,-60 63,-103 109,-116 3,-56 18,-70 1,-104 -19,-36 -31,-13 -37,-81 41,-44 52,-22 90,-67 -9,-69 -57,-52 -61,-124 -5,-87 73,-56 86,-86 2,-5 8,-3 12,-5 -30,-55 -26,-21 -63,-67 15,-86 85,-109 75,-169 -1,-7 -29,-72 -40,-92 -82,-153 -105,42 -196,-425 -27,-139 -48,-278 -76,-420 -28,-137 -68,-271 -84,-412 -25,-219 -97,-406 -137,-625 -19,-105 -38,-95 -90,-152 -63,-70 -67,-68 -188,-72 -150,-6 -321,21 -465,-25 -175,-56 -105,-6 -153,-88 -101,5 -393,7 -466,-45 -232,-164 -363,-139 -176,-478l121 -214c84,-143 228,-228 363,-309 118,-71 75,-138 76,-217 51,-37 100,-111 131,-166 53,-95 -21,-67 48,-194 119,-221 219,-117 403,-110 312,-494 585,-979 857,-1501 140,-269 278,-516 429,-752 49,-76 291,-498 348,-538 127,-90 355,87 291,238l-339 547c-78,126 -160,227 -241,349 -83,125 -165,229 -255,335 -371,438 -639,940 -969,1389 18,15 1,1 27,14 73,36 100,71 91,161 -128,82 -101,122 -206,250 -74,91 -36,136 -3,240 19,60 1,84 63,97 15,3 18,2 35,6 40,10 15,7 57,22 49,-23 78,-73 133,-75 50,-2 117,37 149,46 46,-27 78,-44 141,-60 123,-30 29,23 129,-1 42,-10 23,-9 79,-17 70,-10 26,-1 69,-24 92,-49 217,-43 309,-46 47,-1 73,-35 128,-55 123,-44 193,1 321,-1 8,-64 -2,-121 -15,-178 -27,-117 -13,-47 7,-136 -78,22 -19,64 -120,24 -25,-24 -58,-701 136,-895 76,-76 225,-166 336,-199 50,-15 385,-38 462,-1 394,5 580,214 557,627 46,89 38,87 140,126l164 102c-91,73 -237,88 -342,140 -7,89 -32,110 7,183 27,51 56,101 50,158l-79 43c3,113 0,63 -20,150 -17,76 -28,67 -40,119 72,58 81,79 137,140 101,110 94,45 92,163 125,13 167,232 199,338 52,171 -15,271 -27,446 -12,179 -31,534 -102,692 -67,148 -96,112 -99,288 -2,85 -7,43 -31,106 -28,74 52,59 38,187 -16,141 -24,63 14,209 16,64 9,187 20,207 29,52 95,67 79,188 -10,78 -30,75 -4,151 3,9 10,34 12,43 14,58 9,62 48,86 79,49 36,8 59,58 19,40 22,-16 50,46 15,32 10,72 10,114 47,27 113,34 140,80 33,57 14,132 21,198 68,1 21,-15 70,-22 89,-12 38,110 47,157z"/>
 </g>
</svg>